<svg viewBox="0 0 166.0002 166" fill="none" xmlns="http://www.w3.org/2000/svg" id="45d9b6ad" x="0" y="0"><g id="Dashboard" data-node-id="145:1367"><g id="Frame 181" data-node-id="153:154"><g id="Frame 175" data-node-id="146:1405"><g id="Frame 165" data-node-id="146:1402"><path id="Ellipse 13" data-node-id="167:214" d="M165.0002,82.5c0,45.56 -36.937,82.5 -82.5,82.5c-45.563,0 -82.5,-36.94 -82.5,-82.5c0,-45.56 36.937,-82.5 82.5,-82.5c45.563,0 82.5,36.94 82.5,82.5zM14.4542,82.5c0,37.58 30.465,68.05 68.046,68.05c37.581,0 68.046,-30.47 68.046,-68.05c0,-37.58 -30.465,-68.05 -68.046,-68.05c-37.581,0 -68.046,30.47 -68.046,68.05z" fill="#F5F6FA"/><path id="Ellipse 14" data-node-id="167:215" d="M2.9012,104.19c-4.363,-16.02 -3.794,-32.98 1.633,-48.66l13.66,4.72c-4.476,12.94 -4.946,26.93 -1.347,40.14z" fill="#57B97E"/></g></g></g></g><defs/></svg>