<svg viewBox="0 0 222 222" fill="none" xmlns="http://www.w3.org/2000/svg" id="908df9b6" x="0" y="0"><g id="Dashboard" data-node-id="145:1367"><g id="Frame 181" data-node-id="153:154"><g id="Frame 174" data-node-id="146:1404"><g id="Frame 162_2" data-node-id="146:1401"><path id="Ellipse 9" data-node-id="167:190" d="M221,110.5c0,61.027 -49.47,110.5 -110.5,110.5c-61.03,0 -110.5,-49.473 -110.5,-110.5c0,-61.027 49.47,-110.5 110.5,-110.5c61.03,0 110.5,49.473 110.5,110.5zM61.75,110.5c0,26.925 21.83,48.752 48.75,48.752c26.92,0 48.75,-21.827 48.75,-48.752c0,-26.925 -21.83,-48.752 -48.75,-48.752c-26.92,0 -48.75,21.827 -48.75,48.752z" fill="#F5F6FA"/><path id="Ellipse 12" data-node-id="167:213" d="M46.12,200.309c-18.98,-13.604 -33.16,-32.869 -40.5,-55.032c-7.35,-22.163 -7.49,-46.084 -0.4,-68.331l58.83,18.75c-3.13,9.815 -3.07,20.369 0.18,30.147c3.24,9.779 9.49,18.278 17.87,24.28z" fill="#3C78D8"/><circle id="Ellipse 11" data-node-id="167:200" cx="110.5" cy="110.5" r="42.5" fill="white"/></g></g></g></g><defs/></svg>